<svg width="65" height="84" viewBox="0 0 65 84" fill="none" xmlns="http://www.w3.org/2000/svg">
<path d="M26.5212 1.77333H24.9658V0.493652H29.5644V1.77333H28.009V9.45141H26.5212V1.77333Z" fill="white"/>
<path d="M30.2812 0.493652H31.769V4.14074H33.365V0.493652H34.8528V9.45141H33.365V5.42042H31.769V9.45141H30.2812V0.493652Z" fill="white"/>
<path d="M35.9639 0.493652H40.0215V1.77333H37.4517V4.14074H39.494V5.42042H37.4517V8.17173H40.0215V9.45141H35.9639V0.493652Z" fill="white"/>
<path d="M5.12793 12.1045H13.3156C15.9799 12.1045 17.9781 12.7808 19.3102 14.1334C20.6424 15.486 21.3084 17.4688 21.3084 20.0818V36.4052C21.3084 39.0182 20.6424 41.0009 19.3102 42.3535C17.9781 43.7061 15.9799 44.3824 13.3156 44.3824H5.12793V12.1045ZM13.2182 39.7713C14.0954 39.7713 14.7615 39.5254 15.2164 39.0335C15.7037 38.5417 15.9474 37.7424 15.9474 36.6357V19.8512C15.9474 18.7445 15.7037 17.9453 15.2164 17.4534C14.7615 16.9616 14.0954 16.7156 13.2182 16.7156H10.4889V39.7713H13.2182Z" fill="white"/>
<path d="M32.6634 44.8438C30.0316 44.8438 28.0172 44.1367 26.6201 42.7226C25.2229 41.3086 24.5244 39.3104 24.5244 36.7282V19.7592C24.5244 17.1769 25.2229 15.1788 26.6201 13.7647C28.0172 12.3506 30.0316 11.6436 32.6634 11.6436C35.2952 11.6436 37.3096 12.3506 38.7067 13.7647C40.1038 15.1788 40.8024 17.1769 40.8024 19.7592V36.7282C40.8024 39.3104 40.1038 41.3086 38.7067 42.7226C37.3096 44.1367 35.2952 44.8438 32.6634 44.8438ZM32.6634 40.2326C34.5154 40.2326 35.4413 39.1721 35.4413 37.0509V19.4364C35.4413 17.3153 34.5154 16.2547 32.6634 16.2547C30.8114 16.2547 29.8854 17.3153 29.8854 19.4364V37.0509C29.8854 39.1721 30.8114 40.2326 32.6634 40.2326Z" fill="white"/>
<path d="M51.9636 44.8438C49.3969 44.8438 47.4311 44.1521 46.0665 42.7687C44.7344 41.3854 44.0684 39.4334 44.0684 36.9126V19.5747C44.0684 17.054 44.7344 15.1019 46.0665 13.7186C47.4311 12.3352 49.3969 11.6436 51.9636 11.6436C54.5304 11.6436 56.4799 12.3352 57.812 13.7186C59.1767 15.1019 59.859 17.054 59.859 19.5747V22.987H54.7904V19.2519C54.7904 17.2538 53.8968 16.2547 52.1098 16.2547C50.3228 16.2547 49.4293 17.2538 49.4293 19.2519V37.2815C49.4293 39.2489 50.3228 40.2326 52.1098 40.2326C53.8968 40.2326 54.7904 39.2489 54.7904 37.2815V32.3476H59.859V36.9126C59.859 39.4334 59.1767 41.3854 57.812 42.7687C56.4799 44.1521 54.5304 44.8438 51.9636 44.8438V44.8438Z" fill="white"/>
<path d="M10.4455 50.7371H4.84082V46.126H21.4112V50.7371H15.8065V78.4039H10.4455V50.7371Z" fill="white"/>
<path d="M31.5472 78.8652C28.9154 78.8652 26.901 78.1582 25.5039 76.7441C24.1067 75.33 23.4082 73.3319 23.4082 70.7496V53.7806C23.4082 51.1984 24.1067 49.2002 25.5039 47.7862C26.901 46.3721 28.9154 45.665 31.5472 45.665C34.1789 45.665 36.1934 46.3721 37.5905 47.7862C38.9876 49.2002 39.6861 51.1984 39.6861 53.7806V70.7496C39.6861 73.3319 38.9876 75.33 37.5905 76.7441C36.1934 78.1582 34.1789 78.8652 31.5472 78.8652ZM31.5472 74.2541C33.3992 74.2541 34.3252 73.1935 34.3252 71.0724V53.4579C34.3252 51.3367 33.3992 50.2762 31.5472 50.2762C29.6952 50.2762 28.7692 51.3367 28.7692 53.4579V71.0724C28.7692 73.1935 29.6952 74.2541 31.5472 74.2541V74.2541Z" fill="white"/>
<path d="M43.293 46.126H51.2371C53.9988 46.126 56.0132 46.7408 57.2804 47.9704C58.5475 49.1693 59.1811 51.0292 59.1811 53.5499V55.5327C59.1811 58.8835 58.0114 61.0046 55.6721 61.8961V61.9883C56.9717 62.3572 57.8815 63.1103 58.4013 64.2478C58.9537 65.3852 59.2298 66.9068 59.2298 68.8128V74.4845C59.2298 75.4067 59.2623 76.1599 59.3273 76.7439C59.3923 77.2973 59.5547 77.8506 59.8146 78.4039H54.3562C54.1612 77.8814 54.0313 77.3895 53.9663 76.9284C53.9013 76.4673 53.8688 75.6373 53.8688 74.4384V68.5361C53.8688 67.0605 53.6089 66.0307 53.089 65.4466C52.6017 64.8626 51.7406 64.5705 50.506 64.5705H48.654V78.4039H43.293V46.126ZM50.6035 59.9594C51.6757 59.9594 52.4717 59.6981 52.9916 59.1755C53.5439 58.6529 53.82 57.7768 53.82 56.5471V54.0571C53.82 52.889 53.5926 52.0436 53.1378 51.521C52.7154 50.9984 52.033 50.7371 51.0908 50.7371H48.654V59.9594H50.6035Z" fill="white"/>
<path d="M43.0379 82.1505H1.30273V4.62305H23.3482" stroke="white" stroke-width="2" stroke-linecap="round"/>
<path d="M42.1348 82.1505H63.1044V4.62305H42.216" stroke="white" stroke-width="2" stroke-linecap="round"/>
</svg>
